<?xml version="1.0" encoding="UTF-8" standalone="no"?>
<svg
   viewBox="0 0 50 50"
   width="calc(20px + 1.5*2vh)"
   height="calc(20px + 1.5*2vh)"
   preserveAspectRatio="xMidYMid meet"
   version="1.1"
   id="svg225"
   sodipodi:docname="kentoX.svg"
   style="width: 100%; height: 100%; transform: translate3d(0px, 0px, 0px);"
   inkscape:version="1.1 (1:1.1+202105261517+ce6663b3b7)"
   xmlns:inkscape="http://www.inkscape.org/namespaces/inkscape"
   xmlns:sodipodi="http://sodipodi.sourceforge.net/DTD/sodipodi-0.dtd"
   xmlns="http://www.w3.org/2000/svg"
   xmlns:svg="http://www.w3.org/2000/svg">
  <sodipodi:namedview
     id="namedview227"
     pagecolor="#3a3a3a"
     bordercolor="#666666"
     borderopacity="1.0"
     inkscape:pageshadow="2"
     inkscape:pageopacity="0"
     inkscape:pagecheckerboard="0"
     showgrid="false"
     inkscape:zoom="9.1767468"
     inkscape:cx="47.729333"
     inkscape:cy="36.88671"
     inkscape:window-width="1920"
     inkscape:window-height="1051"
     inkscape:window-x="0"
     inkscape:window-y="0"
     inkscape:window-maximized="1"
     inkscape:current-layer="svg225" />
  <defs
     id="defs193">
    <clipPath
       id="__lottie_element_2">
      <rect
         width="50"
         height="50"
         x="0"
         y="0"
         id="rect154" />
    </clipPath>
    <filter
       id="__lottie_element_4"
       filterUnits="objectBoundingBox"
       x="-2.3668639e-08"
       y="-3.4554995e-08"
       width="1.0000001"
       height="1.0000001">
      <feComponentTransfer
         in="SourceGraphic"
         id="feComponentTransfer159">
        <feFuncA
           type="table"
           tableValues="1.0 0.0"
           id="feFuncA157" />
      </feComponentTransfer>
    </filter>
    <mask
       id="__lottie_element_3"
       mask-type="alpha">
      <g
         filter="url(#__lottie_element_4)"
         id="g172">
        <rect
           width="50"
           height="50"
           x="0"
           y="0"
           fill="#ffffff"
           opacity="0"
           id="rect162" />
        <g
           style="display: block;"
           transform="matrix(1,0,0,1,25,25)"
           opacity="1"
           id="g170">
          <g
             opacity="1"
             id="g168"
             transform="matrix(1,0,0,1,0,0)">
            <path
               fill="rgb(39,179,99)"
               fill-opacity="1"
               d=" M-7.375,-12.5 C-7.375,-12.5 -7.375,12.875 -7.375,12.875 C-7.375,12.875 13.75,0 13.75,0 C13.75,0 -7.375,-12.5 -7.375,-12.5z"
               id="path164" />
            <path
               stroke-linecap="butt"
               stroke-linejoin="miter"
               fill-opacity="0"
               stroke-miterlimit="4"
               stroke="rgb(63,80,181)"
               stroke-opacity="0.65"
               stroke-width="0"
               d=" M-7.375,-12.5 C-7.375,-12.5 -7.375,12.875 -7.375,12.875 C-7.375,12.875 13.75,0 13.75,0 C13.75,0 -7.375,-12.5 -7.375,-12.5z"
               id="path166" />
          </g>
        </g>
      </g>
    </mask>
    <filter
       id="__lottie_element_14"
       filterUnits="objectBoundingBox"
       x="0"
       y="0"
       width="1"
       height="1">
      <feComponentTransfer
         in="SourceGraphic"
         id="feComponentTransfer177">
        <feFuncA
           type="table"
           tableValues="1.0 0.0"
           id="feFuncA175" />
      </feComponentTransfer>
    </filter>
    <mask
       id="__lottie_element_13"
       mask-type="alpha">
      <g
         filter="url(#__lottie_element_14)"
         id="g190">
        <rect
           width="50"
           height="50"
           x="0"
           y="0"
           fill="#ffffff"
           opacity="0"
           id="rect180" />
        <g
           style="display: none;"
           transform="matrix(1,0,0,1,25,25)"
           opacity="1"
           id="g188">
          <g
             opacity="1"
             id="g186"
             transform="matrix(1,0,0,1,0,0)">
            <path
               fill="rgb(39,179,99)"
               fill-opacity="1"
               d=" M-7.95845890045166,-1.7643589973449707 C-7.95845890045166,-1.7643589973449707 -7.95845890045166,0.03890753164887428 -7.95845890045166,0.03890753164887428 C-7.95845890045166,0.03890753164887428 13.75,0 13.75,0 C13.75,0 -7.95845890045166,-1.7643589973449707 -7.95845890045166,-1.7643589973449707z"
               id="path182" />
            <path
               stroke-linecap="butt"
               stroke-linejoin="miter"
               fill-opacity="0"
               stroke-miterlimit="4"
               stroke="rgb(63,80,181)"
               stroke-opacity="0.65"
               stroke-width="0"
               d=" M-7.95845890045166,-1.7643589973449707 C-7.95845890045166,-1.7643589973449707 -7.95845890045166,0.03890753164887428 -7.95845890045166,0.03890753164887428 C-7.95845890045166,0.03890753164887428 13.75,0 13.75,0 C13.75,0 -7.95845890045166,-1.7643589973449707 -7.95845890045166,-1.7643589973449707z"
               id="path184" />
          </g>
        </g>
      </g>
    </mask>
  </defs>
  <g
     id="g7299"
     transform="matrix(-0.92709099,0,0,0.88758871,53.796959,2.8102823)">
    <g
       clip-path="url(#__lottie_element_2)"
       id="g223">
      <g
         style="display:none"
         opacity="1"
         id="g199">
        <g
           opacity="1"
           transform="translate(26.304001,25)"
           id="g197">
          <path
             stroke-linecap="butt"
             stroke-linejoin="miter"
             fill-opacity="0"
             stroke-miterlimit="10"
             stroke="#ffffff"
             stroke-opacity="0.65"
             stroke-width="2"
             d="m -15.304,-18.009001 c 0,0 30.608,18.009001 30.608,18.009001 0,0 -30.608,18.009001 -30.608,18.009001 0,0 0,-36.018002 0,-36.018002 z"
             id="path195" />
        </g>
      </g>
      <g
         style="display:none"
         mask="url(#__lottie_element_13)"
         id="g207">
        <g
           opacity="1"
           id="g205">
          <g
             opacity="1"
             transform="translate(25,25)"
             id="g203">
            <path
               stroke-linecap="butt"
               stroke-linejoin="miter"
               fill-opacity="0"
               stroke-miterlimit="10"
               stroke="#ffffff"
               stroke-opacity="0.65"
               stroke-width="2"
               d="m 4,-16 c 0,0 8,0 8,0 0,0 0,32 0,32 0,0 -8,0 -8,0 0,0 0,-32 0,-32 z m -16,0 c 0,0 8,0 8,0 0,0 0,32 0,32 0,0 -8,0 -8,0 0,0 0,-32 0,-32 z"
               id="path201" />
          </g>
        </g>
      </g>
      <g
         style="display:block"
         opacity="1"
         id="g213">
        <g
           opacity="1"
           transform="translate(26.304001,25)"
           id="g211">
          <path
             stroke-linecap="butt"
             stroke-linejoin="miter"
             fill-opacity="0"
             stroke-miterlimit="10"
             stroke="#ffffff"
             stroke-opacity="0.65"
             stroke-width="2"
             d="M -13.304,-18.009001 13.353676,0 -13.304,18.009001 Z"
             id="path209"
             sodipodi:nodetypes="cccc" />
        </g>
      </g>
      <g
         style="display:none"
         mask="url(#__lottie_element_3)"
         id="g221">
        <g
           opacity="1"
           id="g219">
          <g
             opacity="1"
             transform="translate(25,25)"
             id="g217">
            <path
               stroke-linecap="butt"
               stroke-linejoin="miter"
               fill-opacity="0"
               stroke-miterlimit="10"
               stroke="#ffffff"
               stroke-opacity="0.65"
               stroke-width="2"
               d="m -1.591,-10.737 c 0,0 18.138001,10.81 18.138001,10.81 0,0 0,0 0,0 0,0 -18.297001,10.753 -18.297001,10.753 0,0 0.159,-21.563 0.159,-21.563 z m -12.393,-7.221 c 0,0 12.395,7.218 12.395,7.218 0,0 -0.161,21.594 -0.161,21.594 0,0 -12.26,7.156 -12.26,7.156 0,0 0.026,-35.968 0.026,-35.968 z"
               id="path215" />
          </g>
        </g>
      </g>
    </g>
    <g
       clip-path="url(#__lottie_element_2)"
       id="g4534"
       transform="translate(4.2396511,-4.425177)">
      <g
         style="display:none"
         opacity="1"
         id="g4510">
        <g
           opacity="1"
           transform="translate(26.304001,25)"
           id="g4508">
          <path
             stroke-linecap="butt"
             stroke-linejoin="miter"
             fill-opacity="0"
             stroke-miterlimit="10"
             stroke="#ffffff"
             stroke-opacity="0.65"
             stroke-width="2"
             d="m -15.304,-18.009001 c 0,0 30.608,18.009001 30.608,18.009001 0,0 -30.608,18.009001 -30.608,18.009001 0,0 0,-36.018002 0,-36.018002 z"
             id="path4506" />
        </g>
      </g>
      <g
         style="display:none"
         mask="url(#__lottie_element_13)"
         id="g4518">
        <g
           opacity="1"
           id="g4516">
          <g
             opacity="1"
             transform="translate(25,25)"
             id="g4514">
            <path
               stroke-linecap="butt"
               stroke-linejoin="miter"
               fill-opacity="0"
               stroke-miterlimit="10"
               stroke="#ffffff"
               stroke-opacity="0.65"
               stroke-width="2"
               d="m 4,-16 c 0,0 8,0 8,0 0,0 0,32 0,32 0,0 -8,0 -8,0 0,0 0,-32 0,-32 z m -16,0 c 0,0 8,0 8,0 0,0 0,32 0,32 0,0 -8,0 -8,0 0,0 0,-32 0,-32 z"
               id="path4512" />
          </g>
        </g>
      </g>
      <g
         style="display:block"
         opacity="1"
         id="g4524">
        <g
           opacity="1"
           transform="translate(26.304001,25)"
           id="g4522">
          <path
             stroke-linecap="butt"
             stroke-linejoin="miter"
             fill-opacity="0"
             stroke-miterlimit="10"
             stroke="#ffffff"
             stroke-opacity="0.65"
             stroke-width="2"
             d="m 14.945863,-14.465929 h 3.633011 l -0.0278,37.782212 h -3.605215 z"
             id="path4520"
             sodipodi:nodetypes="ccccc" />
        </g>
      </g>
      <g
         style="display:none"
         mask="url(#__lottie_element_3)"
         id="g4532">
        <g
           opacity="1"
           id="g4530">
          <g
             opacity="1"
             transform="translate(25,25)"
             id="g4528">
            <path
               stroke-linecap="butt"
               stroke-linejoin="miter"
               fill-opacity="0"
               stroke-miterlimit="10"
               stroke="#ffffff"
               stroke-opacity="0.65"
               stroke-width="2"
               d="m -1.591,-10.737 c 0,0 18.138001,10.81 18.138001,10.81 0,0 0,0 0,0 0,0 -18.297001,10.753 -18.297001,10.753 0,0 0.159,-21.563 0.159,-21.563 z m -12.393,-7.221 c 0,0 12.395,7.218 12.395,7.218 0,0 -0.161,21.594 -0.161,21.594 0,0 -12.26,7.156 -12.26,7.156 0,0 0.026,-35.968 0.026,-35.968 z"
               id="path4526" />
          </g>
        </g>
      </g>
    </g>
  </g>
</svg>
