<?xml version="1.0" encoding="UTF-8" standalone="no"?>
<svg
   viewBox="0 0 60 60"
   width="calc(20px + 1.5*2vh)"
   height="calc(20px + 1.5*2vh)"
   preserveAspectRatio="xMidYMid meet"
   version="1.1"
   id="svg225"
   sodipodi:docname="nemet.svg"
   inkscape:version="1.1 (1:1.1+202105261517+ce6663b3b7)"
   xmlns:inkscape="http://www.inkscape.org/namespaces/inkscape"
   xmlns:sodipodi="http://sodipodi.sourceforge.net/DTD/sodipodi-0.dtd"
   xmlns="http://www.w3.org/2000/svg"
   xmlns:svg="http://www.w3.org/2000/svg">
  <sodipodi:namedview
     id="namedview227"
     pagecolor="#525252"
     bordercolor="#666666"
     borderopacity="1.0"
     inkscape:pageshadow="2"
     inkscape:pageopacity="0"
     inkscape:pagecheckerboard="0"
     showgrid="false"
     inkscape:zoom="3.2643026"
     inkscape:cx="33.085168"
     inkscape:cy="28.949522"
     inkscape:window-width="1920"
     inkscape:window-height="1051"
     inkscape:window-x="0"
     inkscape:window-y="0"
     inkscape:window-maximized="1"
     inkscape:current-layer="svg225"
     units="px"
     width="2.79528in"
     height="52.00095px" />
  <defs
     id="defs193">
    <inkscape:path-effect
       effect="skeletal"
       id="path-effect1300"
       is_visible="true"
       lpeversion="1"
       pattern="M 0,18.867925 C 0,8.4528302 8.4528302,0 18.867925,0 c 10.415094,0 18.867924,8.4528302 18.867924,18.867925 0,10.415094 -8.45283,18.867924 -18.867924,18.867924 C 8.4528302,37.735849 0,29.283019 0,18.867925 Z"
       copytype="single_stretched"
       prop_scale="1"
       scale_y_rel="false"
       spacing="0"
       normal_offset="0"
       tang_offset="0"
       prop_units="false"
       vertical_pattern="false"
       hide_knot="false"
       fuse_tolerance="0" />
    <clipPath
       id="__lottie_element_2">
      <rect
         width="50"
         height="50"
         x="0"
         y="0"
         id="rect154" />
    </clipPath>
    <filter
       id="__lottie_element_4"
       filterUnits="objectBoundingBox"
       x="-2.3668639e-08"
       y="-3.4554995e-08"
       width="1.0000001"
       height="1.0000001">
      <feComponentTransfer
         in="SourceGraphic"
         id="feComponentTransfer159">
        <feFuncA
           type="table"
           tableValues="1.0 0.0"
           id="feFuncA157" />
      </feComponentTransfer>
    </filter>
    <mask
       id="__lottie_element_3"
       mask-type="alpha">
      <g
         filter="url(#__lottie_element_4)"
         id="g172">
        <rect
           width="50"
           height="50"
           x="0"
           y="0"
           fill="#ffffff"
           opacity="0"
           id="rect162" />
        <g
           style="display:block"
           transform="translate(25,25)"
           opacity="1"
           id="g170">
          <g
             opacity="1"
             id="g168">
            <path
               fill="#27b363"
               fill-opacity="1"
               d="m -7.375,-12.5 c 0,0 0,25.375 0,25.375 0,0 21.125,-12.875 21.125,-12.875 0,0 -21.125,-12.5 -21.125,-12.5 z"
               id="path164" />
            <path
               stroke-linecap="butt"
               stroke-linejoin="miter"
               fill-opacity="0"
               stroke-miterlimit="4"
               stroke="#3f50b5"
               stroke-opacity="0.65"
               stroke-width="0"
               d="m -7.375,-12.5 c 0,0 0,25.375 0,25.375 0,0 21.125,-12.875 21.125,-12.875 0,0 -21.125,-12.5 -21.125,-12.5 z"
               id="path166" />
          </g>
        </g>
      </g>
    </mask>
    <filter
       id="__lottie_element_14"
       filterUnits="objectBoundingBox"
       x="0"
       y="0"
       width="1"
       height="1">
      <feComponentTransfer
         in="SourceGraphic"
         id="feComponentTransfer177">
        <feFuncA
           type="table"
           tableValues="1.0 0.0"
           id="feFuncA175" />
      </feComponentTransfer>
    </filter>
    <mask
       id="__lottie_element_13"
       mask-type="alpha">
      <g
         filter="url(#__lottie_element_14)"
         id="g190">
        <rect
           width="50"
           height="50"
           x="0"
           y="0"
           fill="#ffffff"
           opacity="0"
           id="rect180" />
        <g
           style="display:none"
           transform="translate(25,25)"
           opacity="1"
           id="g188">
          <g
             opacity="1"
             id="g186">
            <path
               fill="#27b363"
               fill-opacity="1"
               d="m -7.9584589,-1.764359 c 0,0 0,1.80326653 0,1.80326653 C -7.9584589,0.03890753 13.75,0 13.75,0 c 0,0 -21.7084589,-1.764359 -21.7084589,-1.764359 z"
               id="path182" />
            <path
               stroke-linecap="butt"
               stroke-linejoin="miter"
               fill-opacity="0"
               stroke-miterlimit="4"
               stroke="#3f50b5"
               stroke-opacity="0.65"
               stroke-width="0"
               d="m -7.9584589,-1.764359 c 0,0 0,1.80326653 0,1.80326653 C -7.9584589,0.03890753 13.75,0 13.75,0 c 0,0 -21.7084589,-1.764359 -21.7084589,-1.764359 z"
               id="path184" />
          </g>
        </g>
      </g>
    </mask>
  </defs>
  <g
     id="g2001">
    <g
       id="g7792"
       transform="translate(-1.8964072,5.0000007)"
       style="stroke:#ffffff;stroke-opacity:0.65">
      <g
         clip-path="url(#__lottie_element_2)"
         id="g223"
         transform="matrix(-0.92709099,0,0,-0.88758871,45.0215,47.189717)"
         style="stroke:#ffffff;stroke-opacity:0.65">
        <g
           style="display:none;stroke:#ffffff;stroke-opacity:0.65"
           opacity="1"
           id="g199">
          <g
             opacity="1"
             transform="translate(26.304001,25)"
             id="g197"
             style="stroke:#ffffff;stroke-opacity:0.65">
            <path
               stroke-linecap="butt"
               stroke-linejoin="miter"
               fill-opacity="0"
               stroke-miterlimit="10"
               stroke="#ffffff"
               stroke-opacity="0.65"
               stroke-width="2"
               d="m -15.304,-18.009001 c 0,0 30.608,18.009001 30.608,18.009001 0,0 -30.608,18.009001 -30.608,18.009001 0,0 0,-36.018002 0,-36.018002 z"
               id="path195"
               style="stroke:#ffffff;stroke-opacity:0.65" />
          </g>
        </g>
        <g
           style="display:none;stroke:#ffffff;stroke-opacity:0.65"
           mask="url(#__lottie_element_13)"
           id="g207">
          <g
             opacity="1"
             id="g205"
             style="stroke:#ffffff;stroke-opacity:0.65">
            <g
               opacity="1"
               transform="translate(25,25)"
               id="g203"
               style="stroke:#ffffff;stroke-opacity:0.65">
              <path
                 stroke-linecap="butt"
                 stroke-linejoin="miter"
                 fill-opacity="0"
                 stroke-miterlimit="10"
                 stroke="#ffffff"
                 stroke-opacity="0.65"
                 stroke-width="2"
                 d="m 4,-16 c 0,0 8,0 8,0 0,0 0,32 0,32 0,0 -8,0 -8,0 0,0 0,-32 0,-32 z m -16,0 c 0,0 8,0 8,0 0,0 0,32 0,32 0,0 -8,0 -8,0 0,0 0,-32 0,-32 z"
                 id="path201"
                 style="stroke:#ffffff;stroke-opacity:0.65" />
            </g>
          </g>
        </g>
        <g
           style="display:block;stroke:#ffffff;stroke-opacity:0.65"
           opacity="1"
           id="g213">
          <g
             opacity="1"
             transform="translate(26.304001,25)"
             id="g211"
             style="stroke:#ffffff;stroke-opacity:0.65">
            <path
               stroke-linecap="butt"
               stroke-linejoin="miter"
               fill-opacity="0"
               stroke-miterlimit="10"
               stroke="#ffffff"
               stroke-opacity="0.65"
               stroke-width="2"
               d="M -13.304,-18.009001 13.353676,0 -13.304,18.009001 Z"
               id="path209"
               sodipodi:nodetypes="cccc"
               style="stroke:#ffffff;stroke-opacity:0.65" />
          </g>
        </g>
        <g
           style="display:none;stroke:#ffffff;stroke-opacity:0.65"
           mask="url(#__lottie_element_3)"
           id="g221">
          <g
             opacity="1"
             id="g219"
             style="stroke:#ffffff;stroke-opacity:0.65">
            <g
               opacity="1"
               transform="translate(25,25)"
               id="g217"
               style="stroke:#ffffff;stroke-opacity:0.65">
              <path
                 stroke-linecap="butt"
                 stroke-linejoin="miter"
                 fill-opacity="0"
                 stroke-miterlimit="10"
                 stroke="#ffffff"
                 stroke-opacity="0.65"
                 stroke-width="2"
                 d="m -1.591,-10.737 c 0,0 18.138001,10.81 18.138001,10.81 0,0 0,0 0,0 0,0 -18.297001,10.753 -18.297001,10.753 0,0 0.159,-21.563 0.159,-21.563 z m -12.393,-7.221 c 0,0 12.395,7.218 12.395,7.218 0,0 -0.161,21.594 -0.161,21.594 0,0 -12.26,7.156 -12.26,7.156 0,0 0.026,-35.968 0.026,-35.968 z"
                 id="path215"
                 style="stroke:#ffffff;stroke-opacity:0.65" />
            </g>
          </g>
        </g>
      </g>
      <g
         clip-path="url(#__lottie_element_2)"
         id="g1200"
         transform="matrix(-0.92709099,0,0,-0.88758871,73.0215,47.189717)"
         style="stroke:#ffffff;stroke-opacity:0.65">
        <g
           style="display:none;stroke:#ffffff;stroke-opacity:0.65"
           opacity="1"
           id="g1176">
          <g
             opacity="1"
             transform="translate(26.304001,25)"
             id="g1174"
             style="stroke:#ffffff;stroke-opacity:0.65">
            <path
               stroke-linecap="butt"
               stroke-linejoin="miter"
               fill-opacity="0"
               stroke-miterlimit="10"
               stroke="#ffffff"
               stroke-opacity="0.65"
               stroke-width="2"
               d="m -15.304,-18.009001 c 0,0 30.608,18.009001 30.608,18.009001 0,0 -30.608,18.009001 -30.608,18.009001 0,0 0,-36.018002 0,-36.018002 z"
               id="path1172"
               style="stroke:#ffffff;stroke-opacity:0.65" />
          </g>
        </g>
        <g
           style="display:none;stroke:#ffffff;stroke-opacity:0.65"
           mask="url(#__lottie_element_13)"
           id="g1184">
          <g
             opacity="1"
             id="g1182"
             style="stroke:#ffffff;stroke-opacity:0.65">
            <g
               opacity="1"
               transform="translate(25,25)"
               id="g1180"
               style="stroke:#ffffff;stroke-opacity:0.65">
              <path
                 stroke-linecap="butt"
                 stroke-linejoin="miter"
                 fill-opacity="0"
                 stroke-miterlimit="10"
                 stroke="#ffffff"
                 stroke-opacity="0.65"
                 stroke-width="2"
                 d="m 4,-16 c 0,0 8,0 8,0 0,0 0,32 0,32 0,0 -8,0 -8,0 0,0 0,-32 0,-32 z m -16,0 c 0,0 8,0 8,0 0,0 0,32 0,32 0,0 -8,0 -8,0 0,0 0,-32 0,-32 z"
                 id="path1178"
                 style="stroke:#ffffff;stroke-opacity:0.65" />
            </g>
          </g>
        </g>
        <g
           style="display:block;stroke:#ffffff;stroke-opacity:0.65"
           opacity="1"
           id="g1190">
          <g
             opacity="1"
             transform="translate(26.304001,25)"
             id="g1188"
             style="stroke:#ffffff;stroke-opacity:0.65">
            <path
               stroke-linecap="butt"
               stroke-linejoin="miter"
               fill-opacity="0"
               stroke-miterlimit="10"
               stroke="#ffffff"
               stroke-opacity="0.65"
               stroke-width="2"
               d="M -13.304,-18.009001 13.353676,0 -13.304,18.009001 Z"
               id="path1186"
               sodipodi:nodetypes="cccc"
               style="stroke:#ffffff;stroke-opacity:0.65" />
          </g>
        </g>
        <g
           style="display:none;stroke:#ffffff;stroke-opacity:0.65"
           mask="url(#__lottie_element_3)"
           id="g1198">
          <g
             opacity="1"
             id="g1196"
             style="stroke:#ffffff;stroke-opacity:0.65">
            <g
               opacity="1"
               transform="translate(25,25)"
               id="g1194"
               style="stroke:#ffffff;stroke-opacity:0.65">
              <path
                 stroke-linecap="butt"
                 stroke-linejoin="miter"
                 fill-opacity="0"
                 stroke-miterlimit="10"
                 stroke="#ffffff"
                 stroke-opacity="0.65"
                 stroke-width="2"
                 d="m -1.591,-10.737 c 0,0 18.138001,10.81 18.138001,10.81 0,0 0,0 0,0 0,0 -18.297001,10.753 -18.297001,10.753 0,0 0.159,-21.563 0.159,-21.563 z m -12.393,-7.221 c 0,0 12.395,7.218 12.395,7.218 0,0 -0.161,21.594 -0.161,21.594 0,0 -12.26,7.156 -12.26,7.156 0,0 0.026,-35.968 0.026,-35.968 z"
                 id="path1192"
                 style="stroke:#ffffff;stroke-opacity:0.65" />
            </g>
          </g>
        </g>
      </g>
    </g>
    <g
       clip-path="url(#__lottie_element_2)"
       id="g6223"
       transform="matrix(0,0.44027845,-0.42151857,0,21.447769,-4.431073)"
       style="stroke:#ffffff;stroke-opacity:0.65">
      <g
         style="display:none;stroke:#ffffff;stroke-opacity:0.65"
         opacity="1"
         id="g6199">
        <g
           opacity="1"
           transform="translate(26.304001,25)"
           id="g6197"
           style="stroke:#ffffff;stroke-opacity:0.65">
          <path
             stroke-linecap="butt"
             stroke-linejoin="miter"
             fill-opacity="0"
             stroke-miterlimit="10"
             stroke="#ffffff"
             stroke-opacity="0.65"
             stroke-width="2"
             d="m -15.304,-18.009001 c 0,0 30.608,18.009001 30.608,18.009001 0,0 -30.608,18.009001 -30.608,18.009001 0,0 0,-36.018002 0,-36.018002 z"
             id="path6195"
             style="stroke:#ffffff;stroke-opacity:0.65" />
        </g>
      </g>
      <g
         style="display:none;stroke:#ffffff;stroke-opacity:0.65"
         mask="url(#__lottie_element_13)"
         id="g6207">
        <g
           opacity="1"
           id="g6205"
           style="stroke:#ffffff;stroke-opacity:0.65">
          <g
             opacity="1"
             transform="translate(25,25)"
             id="g6203"
             style="stroke:#ffffff;stroke-opacity:0.65">
            <path
               stroke-linecap="butt"
               stroke-linejoin="miter"
               fill-opacity="0"
               stroke-miterlimit="10"
               stroke="#ffffff"
               stroke-opacity="0.65"
               stroke-width="2"
               d="m 4,-16 c 0,0 8,0 8,0 0,0 0,32 0,32 0,0 -8,0 -8,0 0,0 0,-32 0,-32 z m -16,0 c 0,0 8,0 8,0 0,0 0,32 0,32 0,0 -8,0 -8,0 0,0 0,-32 0,-32 z"
               id="path6201"
               style="stroke:#ffffff;stroke-opacity:0.65" />
          </g>
        </g>
      </g>
      <g
         style="display:none;stroke:#ffffff;stroke-opacity:0.65"
         mask="url(#__lottie_element_3)"
         id="g6221">
        <g
           opacity="1"
           id="g6219"
           style="stroke:#ffffff;stroke-opacity:0.65">
          <g
             opacity="1"
             transform="translate(25,25)"
             id="g6217"
             style="stroke:#ffffff;stroke-opacity:0.65">
            <path
               stroke-linecap="butt"
               stroke-linejoin="miter"
               fill-opacity="0"
               stroke-miterlimit="10"
               stroke="#ffffff"
               stroke-opacity="0.65"
               stroke-width="2"
               d="m -1.591,-10.737 c 0,0 18.138001,10.81 18.138001,10.81 0,0 0,0 0,0 0,0 -18.297001,10.753 -18.297001,10.753 0,0 0.159,-21.563 0.159,-21.563 z m -12.393,-7.221 c 0,0 12.395,7.218 12.395,7.218 0,0 -0.161,21.594 -0.161,21.594 0,0 -12.26,7.156 -12.26,7.156 0,0 0.026,-35.968 0.026,-35.968 z"
               id="path6215"
               style="stroke:#ffffff;stroke-opacity:0.65" />
          </g>
        </g>
      </g>
      <g
         id="g7760"
         style="stroke:#ffffff;stroke-opacity:0.65">
        <g
           clip-path="url(#__lottie_element_2)"
           id="g1296"
           transform="matrix(0,0.67648954,-0.6200688,0,49.553303,28.856366)"
           style="stroke:#ffffff;stroke-opacity:0.65">
          <g
             style="display:none;stroke:#ffffff;stroke-opacity:0.65"
             opacity="1"
             id="g1272">
            <g
               opacity="1"
               transform="translate(26.304001,25)"
               id="g1270"
               style="stroke:#ffffff;stroke-opacity:0.65">
              <path
                 stroke-linecap="butt"
                 stroke-linejoin="miter"
                 fill-opacity="0"
                 stroke-miterlimit="10"
                 stroke="#ffffff"
                 stroke-opacity="0.65"
                 stroke-width="2"
                 d="m -15.304,-18.009001 c 0,0 30.608,18.009001 30.608,18.009001 0,0 -30.608,18.009001 -30.608,18.009001 0,0 0,-36.018002 0,-36.018002 z"
                 id="path1268"
                 style="stroke:#ffffff;stroke-opacity:0.65" />
            </g>
          </g>
          <g
             style="display:none;stroke:#ffffff;stroke-opacity:0.65"
             mask="url(#__lottie_element_13)"
             id="g1280">
            <g
               opacity="1"
               id="g1278"
               style="stroke:#ffffff;stroke-opacity:0.65">
              <g
                 opacity="1"
                 transform="translate(25,25)"
                 id="g1276"
                 style="stroke:#ffffff;stroke-opacity:0.65">
                <path
                   stroke-linecap="butt"
                   stroke-linejoin="miter"
                   fill-opacity="0"
                   stroke-miterlimit="10"
                   stroke="#ffffff"
                   stroke-opacity="0.65"
                   stroke-width="2"
                   d="m 4,-16 c 0,0 8,0 8,0 0,0 0,32 0,32 0,0 -8,0 -8,0 0,0 0,-32 0,-32 z m -16,0 c 0,0 8,0 8,0 0,0 0,32 0,32 0,0 -8,0 -8,0 0,0 0,-32 0,-32 z"
                   id="path1274"
                   style="stroke:#ffffff;stroke-opacity:0.65" />
              </g>
            </g>
          </g>
          <g
             style="display:block;stroke:#ffffff;stroke-opacity:0.65"
             opacity="1"
             id="g1286">
            <g
               opacity="1"
               transform="translate(26.304001,25)"
               id="g1284"
               style="stroke:#ffffff;stroke-opacity:0.65">
              <path
                 stroke-linecap="butt"
                 stroke-linejoin="miter"
                 fill-opacity="0"
                 stroke-miterlimit="10"
                 stroke="#ffffff"
                 stroke-opacity="0.65"
                 stroke-width="2"
                 d="m -13.304,-18.009001 3.9256478,-0.03206 0.1799078,22.1818355 4.9485964,4.9430071 -9.054152,8.9252224 z"
                 id="path1282"
                 sodipodi:nodetypes="cccccc"
                 style="stroke:#ffffff;stroke-opacity:0.65" />
            </g>
          </g>
          <g
             style="display:none;stroke:#ffffff;stroke-opacity:0.65"
             mask="url(#__lottie_element_3)"
             id="g1294">
            <g
               opacity="1"
               id="g1292"
               style="stroke:#ffffff;stroke-opacity:0.65">
              <g
                 opacity="1"
                 transform="translate(25,25)"
                 id="g1290"
                 style="stroke:#ffffff;stroke-opacity:0.65">
                <path
                   stroke-linecap="butt"
                   stroke-linejoin="miter"
                   fill-opacity="0"
                   stroke-miterlimit="10"
                   stroke="#ffffff"
                   stroke-opacity="0.65"
                   stroke-width="2"
                   d="m -1.591,-10.737 c 0,0 18.138001,10.81 18.138001,10.81 0,0 0,0 0,0 0,0 -18.297001,10.753 -18.297001,10.753 0,0 0.159,-21.563 0.159,-21.563 z m -12.393,-7.221 c 0,0 12.395,7.218 12.395,7.218 0,0 -0.161,21.594 -0.161,21.594 0,0 -12.26,7.156 -12.26,7.156 0,0 0.026,-35.968 0.026,-35.968 z"
                   id="path1288"
                   style="stroke:#ffffff;stroke-opacity:0.65" />
              </g>
            </g>
          </g>
        </g>
        <g
           clip-path="url(#__lottie_element_2)"
           id="g3122"
           transform="matrix(0,-0.72207701,0.66185418,0,15.354798,32.326485)"
           style="stroke:#ffffff;stroke-opacity:0.65">
          <g
             style="display:none;stroke:#ffffff;stroke-opacity:0.65"
             opacity="1"
             id="g3098">
            <g
               opacity="1"
               transform="translate(26.304001,25)"
               id="g3096"
               style="stroke:#ffffff;stroke-opacity:0.65">
              <path
                 stroke-linecap="butt"
                 stroke-linejoin="miter"
                 fill-opacity="0"
                 stroke-miterlimit="10"
                 stroke="#ffffff"
                 stroke-opacity="0.65"
                 stroke-width="2"
                 d="m -15.304,-18.009001 c 0,0 30.608,18.009001 30.608,18.009001 0,0 -30.608,18.009001 -30.608,18.009001 0,0 0,-36.018002 0,-36.018002 z"
                 id="path3094"
                 style="stroke:#ffffff;stroke-opacity:0.65" />
            </g>
          </g>
          <g
             style="display:none;stroke:#ffffff;stroke-opacity:0.65"
             mask="url(#__lottie_element_13)"
             id="g3106">
            <g
               opacity="1"
               id="g3104"
               style="stroke:#ffffff;stroke-opacity:0.65">
              <g
                 opacity="1"
                 transform="translate(25,25)"
                 id="g3102"
                 style="stroke:#ffffff;stroke-opacity:0.65">
                <path
                   stroke-linecap="butt"
                   stroke-linejoin="miter"
                   fill-opacity="0"
                   stroke-miterlimit="10"
                   stroke="#ffffff"
                   stroke-opacity="0.65"
                   stroke-width="2"
                   d="m 4,-16 c 0,0 8,0 8,0 0,0 0,32 0,32 0,0 -8,0 -8,0 0,0 0,-32 0,-32 z m -16,0 c 0,0 8,0 8,0 0,0 0,32 0,32 0,0 -8,0 -8,0 0,0 0,-32 0,-32 z"
                   id="path3100"
                   style="stroke:#ffffff;stroke-opacity:0.65" />
              </g>
            </g>
          </g>
          <g
             style="display:block;stroke:#ffffff;stroke-opacity:0.65"
             opacity="1"
             id="g3112">
            <g
               opacity="1"
               transform="translate(26.304001,25)"
               id="g3110"
               style="stroke:#ffffff;stroke-opacity:0.65">
              <path
                 stroke-linecap="butt"
                 stroke-linejoin="miter"
                 fill-opacity="0"
                 stroke-miterlimit="10"
                 stroke="#ffffff"
                 stroke-opacity="0.65"
                 stroke-width="2"
                 d="m -15.180132,-14.415772 8.1495451,8.5163941 0.00795,17.0327879 -8.1574951,8.516394 -8.15352,-8.516394 V -5.8993779 Z"
                 id="path3108"
                 sodipodi:nodetypes="ccccccc"
                 style="stroke:#ffffff;stroke-opacity:0.65" />
            </g>
          </g>
          <g
             style="display:none;stroke:#ffffff;stroke-opacity:0.65"
             mask="url(#__lottie_element_3)"
             id="g3120">
            <g
               opacity="1"
               id="g3118"
               style="stroke:#ffffff;stroke-opacity:0.65">
              <g
                 opacity="1"
                 transform="translate(25,25)"
                 id="g3116"
                 style="stroke:#ffffff;stroke-opacity:0.65">
                <path
                   stroke-linecap="butt"
                   stroke-linejoin="miter"
                   fill-opacity="0"
                   stroke-miterlimit="10"
                   stroke="#ffffff"
                   stroke-opacity="0.65"
                   stroke-width="2"
                   d="m -1.591,-10.737 c 0,0 18.138001,10.81 18.138001,10.81 0,0 0,0 0,0 0,0 -18.297001,10.753 -18.297001,10.753 0,0 0.159,-21.563 0.159,-21.563 z m -12.393,-7.221 c 0,0 12.395,7.218 12.395,7.218 0,0 -0.161,21.594 -0.161,21.594 0,0 -12.26,7.156 -12.26,7.156 0,0 0.026,-35.968 0.026,-35.968 z"
                   id="path3114"
                   style="stroke:#ffffff;stroke-opacity:0.65" />
              </g>
            </g>
          </g>
        </g>
        <g
           style="display:block;stroke:#ffffff;stroke-opacity:0.65"
           opacity="1"
           id="g6676"
           transform="matrix(0.61056361,0,0,0.61056361,15.718189,8.6430701)">
          <g
             opacity="1"
             transform="translate(26.304001,25)"
             id="g6674"
             style="stroke:#ffffff;stroke-opacity:0.65">
            <path
               stroke-linecap="butt"
               stroke-linejoin="miter"
               fill-opacity="0"
               stroke-miterlimit="10"
               stroke="#ffffff"
               stroke-opacity="0.65"
               stroke-width="1.19293"
               d="m -10.357462,-23.555717 6.8931161,1.333646 -9.6937901,1.969189 z"
               id="path6672"
               sodipodi:nodetypes="cccc"
               style="stroke:#ffffff;stroke-opacity:0.65" />
          </g>
        </g>
        <g
           style="display:block;stroke:#ffffff;stroke-opacity:0.65"
           opacity="1"
           id="g7660"
           transform="matrix(0.61056361,0,0,0.61056361,15.718189,12.102146)">
          <g
             opacity="1"
             transform="translate(26.304001,25)"
             id="g7658"
             style="stroke:#ffffff;stroke-opacity:0.65">
            <path
               stroke-linecap="butt"
               stroke-linejoin="miter"
               fill-opacity="0"
               stroke-miterlimit="10"
               stroke="#ffffff"
               stroke-opacity="0.65"
               stroke-width="1.19293"
               d="m -10.357462,-23.555717 6.8931161,1.333646 -9.6937901,1.969189 z"
               id="path7656"
               sodipodi:nodetypes="cccc"
               style="stroke:#ffffff;stroke-opacity:0.65" />
          </g>
        </g>
      </g>
    </g>
  </g>
</svg>
